<svg width="25" height="24" viewBox="0 0 25 24" fill="none" xmlns="http://www.w3.org/2000/svg">
<g clip-path="url(#clip0_3013_16610)">
<path d="M7.5482 17.84C8.2301 18.555 9.05132 19.1227 9.96117 19.508C10.871 19.8932 11.8502 20.0879 12.8382 20.08C14.8391 19.9987 16.74 19.1835 18.1782 17.79C19.1159 16.8765 19.7807 15.72 20.0982 14.45C20.2697 13.8951 20.287 13.304 20.1482 12.74C20.1127 12.6442 20.0581 12.5566 19.9876 12.4827C19.9171 12.4087 19.8322 12.35 19.7382 12.31C19.4055 12.2817 19.0709 12.2817 18.7382 12.31C17.3382 12.31 14.3182 12.54 11.6082 12.65C9.78405 12.6072 7.96052 12.7581 6.1682 13.1C6.07899 13.1668 6.00578 13.2526 5.95389 13.3512C5.902 13.4498 5.87272 13.5587 5.8682 13.67C5.84713 14.221 5.932 14.771 6.1182 15.29C6.41226 16.2302 6.89931 17.0988 7.5482 17.84ZM10.3082 13.46C13.2082 13.4 16.9182 13.39 18.6182 13.39H19.1182C19.0549 14.1209 18.8367 14.8299 18.4782 15.47C18.2067 16.0396 17.8378 16.5574 17.3882 17C16.1686 18.2335 14.5391 18.9771 12.8082 19.09C11.9459 19.1232 11.086 18.9798 10.2812 18.6686C9.47639 18.3573 8.74372 17.8848 8.1282 17.28C7.6222 16.7467 7.22782 16.1178 6.9682 15.43C6.76204 14.9753 6.62066 14.494 6.5482 14V13.62C7.79803 13.5034 9.05297 13.45 10.3082 13.46Z" fill="#020202"/>
<path d="M24.8382 10C24.7263 8.97645 24.4948 7.96957 24.1482 7C23.4756 5.20735 22.3024 3.64549 20.7682 2.5C19.2568 1.36743 17.4735 0.653429 15.5982 0.430002C15.5072 0.421182 15.4164 0.447269 15.3439 0.502976C15.2715 0.558683 15.223 0.639843 15.2082 0.730002C15.1996 0.819796 15.226 0.909442 15.2819 0.980241C15.3378 1.05104 15.4188 1.09753 15.5082 1.11C17.259 1.35433 18.9127 2.06208 20.2982 3.16C21.6782 4.23693 22.7196 5.68788 23.2982 7.34C23.6251 8.24203 23.8499 9.17788 23.9682 10.13C24.0534 11.0848 24.0534 12.0452 23.9682 13C23.8768 13.9418 23.6581 14.8669 23.3182 15.75C22.9874 16.6404 22.5545 17.4893 22.0282 18.28C20.9127 19.8753 19.3404 21.0954 17.5182 21.78C15.6973 22.5071 13.7316 22.7982 11.7782 22.63C10.6976 22.5372 9.6346 22.2984 8.61819 21.92C7.61064 21.548 6.67389 21.0069 5.84819 20.32C3.77612 18.476 2.43479 15.9495 2.06819 13.2C1.60851 10.4448 2.24759 7.61922 3.84819 5.33C4.69453 4.15467 5.75261 3.14745 6.96819 2.36C8.20029 1.59559 9.59405 1.12986 11.0382 1C11.7482 0.930002 12.4582 0.870002 13.1582 0.870002C13.6264 0.865088 14.0944 0.895172 14.5582 0.960002C14.5988 0.970567 14.6412 0.972481 14.6827 0.965618C14.7241 0.958756 14.7636 0.943272 14.7987 0.920167C14.8338 0.897062 14.8636 0.866852 14.8863 0.831491C14.9089 0.79613 14.9239 0.756406 14.9302 0.71489C14.9366 0.673374 14.9341 0.630991 14.923 0.590483C14.9119 0.549975 14.8925 0.512246 14.8659 0.479736C14.8393 0.447226 14.8062 0.42066 14.7687 0.401758C14.7312 0.382855 14.6901 0.372037 14.6482 0.370002C14.1596 0.275664 13.6651 0.215518 13.1682 0.190002C12.4382 0.190002 11.7082 0.190002 10.9782 0.280002C9.42419 0.418959 7.92257 0.911519 6.58819 1.72C5.26675 2.53356 4.10723 3.58458 3.16819 4.82C1.37471 7.2692 0.623333 10.3286 1.07819 13.33C1.43318 16.3507 2.87224 19.14 5.12819 21.18C6.04887 21.9609 7.09766 22.5766 8.22819 23C9.34889 23.4117 10.519 23.674 11.7082 23.78C13.8411 23.95 15.9843 23.6213 17.9682 22.82C19.9896 22.0263 21.7178 20.6298 22.9182 18.82C23.4814 17.9568 23.9412 17.0305 24.2882 16.06C24.637 15.0933 24.8556 14.0844 24.9382 13.06C25.0003 12.0391 24.9668 11.0147 24.8382 10Z" fill="#0C6FFF"/>
<path d="M9.96818 8.61003C10.1568 8.20386 10.1853 7.74154 10.0482 7.31525C9.91102 6.88896 9.61823 6.53003 9.22818 6.31003C8.96267 6.19122 8.67161 6.14087 8.38162 6.16358C8.09163 6.18629 7.81196 6.28133 7.56818 6.44003C6.56818 7.04003 5.95818 8.62003 7.10818 9.44003C7.3493 9.57821 7.61578 9.66642 7.89173 9.6994C8.16767 9.73239 8.44744 9.70947 8.71433 9.63201C8.98123 9.55455 9.2298 9.42415 9.44522 9.24856C9.66063 9.07298 9.83849 8.85582 9.96818 8.61003Z" fill="#020202"/>
<path d="M16.6882 9.42001C16.9293 9.56995 17.2043 9.65673 17.4878 9.67234C17.7713 9.68794 18.0542 9.63187 18.3103 9.5093C18.5664 9.38672 18.7875 9.2016 18.9531 8.97102C19.1188 8.74044 19.2237 8.47183 19.2582 8.19C19.3282 7.83569 19.2836 7.46828 19.1307 7.14104C18.9779 6.8138 18.7248 6.54374 18.4082 6.37001C16.7082 5.64001 15.0282 7.5 16.0682 8.9C16.2308 9.11991 16.4433 9.29812 16.6882 9.42001Z" fill="#020202"/>
</g>
<defs>
<clipPath id="clip0_3013_16610">
<rect width="24" height="24" fill="white" transform="translate(0.968201)"/>
</clipPath>
</defs>
</svg>
